<svg width="12" height="14" viewBox="0 0 12 14" fill="none" xmlns="http://www.w3.org/2000/svg">
<path fill-rule="evenodd" clip-rule="evenodd" d="M2.66663 1.66665C2.48981 1.66665 2.32025 1.73688 2.19522 1.86191C2.0702 1.98693 1.99996 2.1565 1.99996 2.33331V11.7045L5.61247 9.12416C5.84427 8.95859 6.15565 8.95859 6.38745 9.12416L9.99996 11.7045V2.33331C9.99996 2.1565 9.92972 1.98693 9.8047 1.86191C9.67967 1.73688 9.5101 1.66665 9.33329 1.66665H2.66663ZM1.25241 0.919099C1.62749 0.544027 2.13619 0.333313 2.66663 0.333313H9.33329C9.86372 0.333313 10.3724 0.544027 10.7475 0.919099C11.1226 1.29417 11.3333 1.80288 11.3333 2.33331V13C11.3333 13.2497 11.1937 13.4785 10.9717 13.5928C10.7496 13.707 10.4823 13.6876 10.2791 13.5425L5.99996 10.4859L1.72078 13.5425C1.51758 13.6876 1.25029 13.707 1.02824 13.5928C0.806191 13.4785 0.666626 13.2497 0.666626 13V2.33331C0.666626 1.80288 0.87734 1.29417 1.25241 0.919099Z" fill="#9D76F0"/>
</svg>
