<svg width="25" height="25" viewBox="0 0 25 25" fill="none" xmlns="http://www.w3.org/2000/svg">
<g clip-path="url(#clip0)">
<path d="M14.3304 5.25698L15.9536 4.87851C16.384 4.77813 16.8368 4.85287 17.2121 5.08629C17.5875 5.31971 17.8548 5.69268 17.9552 6.12316L20.6044 17.485C20.7048 17.9155 20.6301 18.3682 20.3967 18.7436C20.1632 19.119 19.7903 19.3863 19.3598 19.4866L9.62104 21.7575C9.19056 21.8578 8.73783 21.7831 8.36246 21.5497C7.98709 21.3163 7.71982 20.9433 7.61944 20.5128L4.97015 9.15093C4.86977 8.72045 4.94451 8.26772 5.17793 7.89235C5.41135 7.51698 5.78432 7.24971 6.2148 7.14933L7.83793 6.77086" stroke="#9D76F0" stroke-width="2" stroke-linecap="round" stroke-linejoin="round"/>
<path d="M13.1404 3.82309L8.27104 4.9585C7.82282 5.06301 7.5442 5.51108 7.64871 5.9593L8.02718 7.58242C8.13169 8.03064 8.57976 8.30926 9.02798 8.20475L13.8974 7.06934C14.3456 6.96483 14.6242 6.51676 14.5197 6.06854L14.1412 4.44542C14.0367 3.9972 13.5886 3.71858 13.1404 3.82309Z" stroke="#9D76F0" stroke-width="2" stroke-linecap="round" stroke-linejoin="round"/>
</g>
<defs>
<clipPath id="clip0">
<rect width="20" height="20" fill="white" transform="translate(0.588501 5.03848) rotate(-13.1254)"/>
</clipPath>
</defs>
</svg>
