<svg width="12" height="14" viewBox="0 0 12 14" fill="none" xmlns="http://www.w3.org/2000/svg">
<path fill-rule="evenodd" clip-rule="evenodd" d="M2.66667 1.66668C2.48985 1.66668 2.32029 1.73691 2.19526 1.86194C2.07024 1.98696 2 2.15653 2 2.33334V11.7046L5.61251 9.12419C5.84431 8.95862 6.15569 8.95862 6.38749 9.12419L10 11.7046V2.33334C10 2.15653 9.92976 1.98696 9.80474 1.86194C9.67971 1.73691 9.51014 1.66668 9.33333 1.66668H2.66667ZM1.25245 0.91913C1.62753 0.544057 2.13623 0.333344 2.66667 0.333344H9.33333C9.86376 0.333344 10.3725 0.544057 10.7475 0.91913C11.1226 1.2942 11.3333 1.80291 11.3333 2.33334V13C11.3333 13.2497 11.1938 13.4785 10.9717 13.5928C10.7497 13.7071 10.4824 13.6876 10.2792 13.5425L6 10.4859L1.72082 13.5425C1.51762 13.6876 1.25033 13.7071 1.02828 13.5928C0.806231 13.4785 0.666666 13.2497 0.666666 13V2.33334C0.666666 1.80291 0.87738 1.2942 1.25245 0.91913Z" fill="#E7E7ED"/>
</svg>
