<svg width="14" height="16" viewBox="0 0 14 16" fill="none" xmlns="http://www.w3.org/2000/svg">
<path fill-rule="evenodd" clip-rule="evenodd" d="M6.59072 0.807119C6.83146 0.619876 7.16856 0.619876 7.4093 0.807119L13.4093 5.47378C13.5717 5.60009 13.6667 5.79429 13.6667 6.00002V13.3334C13.6667 13.8638 13.456 14.3725 13.0809 14.7476C12.7058 15.1226 12.1971 15.3334 11.6667 15.3334H2.33334C1.80291 15.3334 1.2942 15.1226 0.91913 14.7476C0.544057 14.3725 0.333344 13.8638 0.333344 13.3334V6.00002C0.333344 5.79429 0.428325 5.60009 0.590716 5.47378L6.59072 0.807119ZM1.66668 6.32608V13.3334C1.66668 13.5102 1.73691 13.6797 1.86194 13.8048C1.98696 13.9298 2.15653 14 2.33334 14H11.6667C11.8435 14 12.0131 13.9298 12.1381 13.8048C12.2631 13.6797 12.3333 13.5102 12.3333 13.3334V6.32608L7.00001 2.17793L1.66668 6.32608Z" fill="#E7E7ED"/>
<path fill-rule="evenodd" clip-rule="evenodd" d="M4.33334 8.00002C4.33334 7.63183 4.63182 7.33335 5.00001 7.33335H9.00001C9.3682 7.33335 9.66668 7.63183 9.66668 8.00002V14.6667C9.66668 15.0349 9.3682 15.3334 9.00001 15.3334C8.63182 15.3334 8.33334 15.0349 8.33334 14.6667V8.66669H5.66668V14.6667C5.66668 15.0349 5.3682 15.3334 5.00001 15.3334C4.63182 15.3334 4.33334 15.0349 4.33334 14.6667V8.00002Z" fill="#E7E7ED"/>
</svg>
