<svg width="16" height="12" viewBox="0 0 16 12" fill="none" xmlns="http://www.w3.org/2000/svg">
<path fill-rule="evenodd" clip-rule="evenodd" d="M0.666672 6C0.666672 5.63181 0.965149 5.33333 1.33334 5.33333H14.6667C15.0349 5.33333 15.3333 5.63181 15.3333 6C15.3333 6.36819 15.0349 6.66667 14.6667 6.66667H1.33334C0.965149 6.66667 0.666672 6.36819 0.666672 6Z" fill="#E7E7ED"/>
<path fill-rule="evenodd" clip-rule="evenodd" d="M4.82667 0L11.1733 7.94729e-08C11.5454 0.000197609 11.9104 0.104188 12.2266 0.30028C12.5426 0.496199 12.7977 0.776294 12.9633 1.10912C12.9634 1.10941 12.9635 1.10971 12.9637 1.11L15.2628 5.70151C15.3092 5.79417 15.3333 5.89637 15.3333 6V10C15.3333 10.5304 15.1226 11.0391 14.7476 11.4142C14.3725 11.7893 13.8638 12 13.3333 12H2.66667C2.13624 12 1.62753 11.7893 1.25246 11.4142C0.877385 11.0391 0.666672 10.5304 0.666672 10V6C0.666672 5.89637 0.690829 5.79417 0.737227 5.70151L3.03632 1.11C3.03648 1.10968 3.03664 1.10935 3.0368 1.10903C3.20239 0.77624 3.45745 0.49618 3.77336 0.30028C4.08958 0.104188 4.45459 0.00019745 4.82667 0ZM3.63334 1.40667L4.22945 1.70516L2.00001 6.15758V10C2.00001 10.1768 2.07024 10.3464 2.19527 10.4714C2.32029 10.5964 2.48986 10.6667 2.66667 10.6667H13.3333C13.5101 10.6667 13.6797 10.5964 13.8047 10.4714C13.9298 10.3464 14 10.1768 14 10V6.15758L11.7706 1.70516L11.7697 1.70333C11.7145 1.59226 11.6294 1.49879 11.524 1.43343C11.4186 1.36809 11.2971 1.33342 11.1731 1.33333H4.8269C4.70291 1.33342 4.58141 1.36808 4.47604 1.43343C4.37063 1.49879 4.28555 1.59226 4.23036 1.70333L3.63334 1.40667Z" fill="#E7E7ED"/>
</svg>
